  <svg
    width="594"
    height="900"
    viewBox="0 0 594 900"
    fill="none"
    xmlns="http://www.w3.org/2000/svg"
  >
    <path
      fillRule="evenodd"
      clipRule="evenodd"
      d="M308.327 226.536C378.637 220.282 444.512 269.606 480.934 330.072C512.807 382.987 490.783 446.005 476.76 506.165C462.866 565.773 458.158 637.785 403.016 664.345C347.871 690.906 288.321 650.329 233.354 623.403C179.105 596.829 113.044 574.253 99.1091 515.474C85.1039 456.399 134.755 406.873 170.362 357.698C209.516 303.626 241.83 232.451 308.327 226.536Z"
      fill="#F0EFEE"
    />
    <g clipPath="url(#clip0_438_1294)">
      <path
        fillRule="evenodd"
        clipRule="evenodd"
        d="M147.377 300H446.623C446.829 300 447.026 300.081 447.172 300.227C447.317 300.372 447.399 300.57 447.399 300.776V599.224C447.399 599.326 447.379 599.427 447.34 599.521C447.301 599.615 447.244 599.701 447.172 599.773C447.099 599.845 447.014 599.902 446.92 599.941C446.826 599.98 446.725 600 446.623 600H147.377C147.275 600 147.174 599.98 147.08 599.941C146.986 599.902 146.9 599.845 146.828 599.773C146.756 599.701 146.699 599.615 146.66 599.521C146.621 599.427 146.601 599.326 146.601 599.224V300.776C146.601 300.57 146.682 300.372 146.828 300.227C146.973 300.081 147.171 300 147.377 300Z"
        fill="#EAF0FF"
      />
      <path
        fillRule="evenodd"
        clipRule="evenodd"
        d="M193.039 350.245H365.706C365.912 350.245 366.109 350.327 366.254 350.472C366.4 350.618 366.481 350.815 366.481 351.021V368.877C366.481 369.083 366.4 369.28 366.254 369.425C366.109 369.571 365.912 369.653 365.706 369.653H193.039C192.937 369.653 192.837 369.633 192.742 369.594C192.648 369.555 192.563 369.498 192.491 369.426C192.418 369.354 192.361 369.268 192.322 369.174C192.283 369.08 192.263 368.979 192.263 368.877V351.021C192.263 350.919 192.283 350.818 192.322 350.724C192.361 350.63 192.418 350.544 192.491 350.472C192.563 350.4 192.648 350.343 192.742 350.304C192.837 350.265 192.937 350.245 193.039 350.245Z"
        fill="white"
      />
      <path
        fillRule="evenodd"
        clipRule="evenodd"
        d="M234.543 375.338H273.074C273.28 375.338 273.477 375.42 273.622 375.566C273.768 375.711 273.85 375.908 273.85 376.114V388.923C273.849 389.129 273.768 389.326 273.622 389.471C273.477 389.616 273.28 389.698 273.074 389.698H234.543C234.337 389.698 234.14 389.617 233.994 389.471C233.849 389.326 233.767 389.129 233.767 388.923V376.117C233.766 376.015 233.786 375.914 233.825 375.819C233.864 375.725 233.921 375.639 233.993 375.566C234.065 375.494 234.151 375.437 234.245 375.398C234.339 375.358 234.441 375.338 234.543 375.338Z"
        fill="#B2C3FB"
      />
      <path
        fillRule="evenodd"
        clipRule="evenodd"
        d="M371.038 404.152C371.015 402.062 368.349 397.475 367.389 397.642C366.429 397.81 360.231 401.078 358.262 402.11C356.293 403.142 333.502 402.407 330.695 402.326C327.889 402.244 326.763 400.087 323.366 398.358C319.968 396.629 318.667 405.315 318.608 406.848C318.512 409.236 323.192 406.671 324.701 407.085C326.21 407.5 355.486 414.241 357.293 414.302C359.099 414.363 367.586 410.25 368.325 409.038C369.064 407.826 371.062 406.242 371.038 404.152Z"
        fill="white"
      />
      <path
        fillRule="evenodd"
        clipRule="evenodd"
        d="M331.17 466.995H412.142C413.042 466.995 413.771 468.016 413.771 469.276V506.956C413.771 508.216 413.041 509.237 412.142 509.237H331.17C330.27 509.237 329.541 508.215 329.541 506.956V469.276C329.54 468.016 330.27 466.995 331.17 466.995Z"
        fill="#B2C3FB"
      />
      <path
        fillRule="evenodd"
        clipRule="evenodd"
        d="M331.17 513.66H412.142C413.042 513.66 413.771 514.683 413.771 515.941V553.623C413.771 554.882 413.041 555.903 412.142 555.903H331.17C330.27 555.903 329.541 554.881 329.541 553.623V515.943C329.54 514.683 330.27 513.66 331.17 513.66Z"
        fill="#B2C3FB"
      />
      <path
        d="M333.473 429.443L343.705 445.954"
        stroke="#1B3C87"
        strokeWidth="0.895"
        strokeLinecap="round"
        strokeLinejoin="round"
      />
      <path
        d="M314.011 472.154L323.44 487.93"
        stroke="#1B3C87"
        strokeWidth="0.895"
        strokeLinecap="round"
        strokeLinejoin="round"
      />
      <path
        d="M345.211 510.902L363.528 509.384"
        stroke="#1B3C87"
        strokeWidth="0.895"
        strokeLinecap="round"
        strokeLinejoin="round"
      />
      <path
        d="M345.738 514.346L364.055 512.827"
        stroke="#1B3C87"
        strokeWidth="0.895"
        strokeLinecap="round"
        strokeLinejoin="round"
      />
      <path
        fillRule="evenodd"
        clipRule="evenodd"
        d="M385.527 441.752C383.902 441.887 354.08 449.407 350.215 450.688C346.349 451.968 319.12 474.825 317.844 476.115C318.674 477.567 323.698 485.846 323.698 485.846L345.198 475.458C345.198 475.458 387.151 441.617 385.527 441.752Z"
        fill="#3C3744"
      />
      <path
        d="M330.075 463.121C322.972 468.897 316.4 474.469 315.788 475.086C316.618 476.543 321.645 484.819 321.645 484.819L343.145 474.432C343.145 474.432 385.098 440.591 383.474 440.726C381.85 440.861 352.028 448.38 348.162 449.661C346.937 450.067 343.368 452.638 339.022 456.002"
        stroke="#1B3C87"
        strokeWidth="0.895"
        strokeLinecap="round"
        strokeLinejoin="round"
      />
      <path
        fillRule="evenodd"
        clipRule="evenodd"
        d="M407.15 434.611C419.364 464.839 397.179 473.68 366.024 474.799C365.532 478.579 362.786 510.908 362.786 510.908L349.46 512.001C349.46 512.001 340.493 468.02 342.525 464.995C344.557 461.97 378.946 442.804 381.987 441.483C385.027 440.161 406.626 433.305 407.15 434.611Z"
        fill="#3C3744"
      />
      <path
        d="M388.102 470.3C381.259 472.196 373.098 473.144 364.204 473.464C363.712 477.244 360.966 509.573 360.966 509.573L347.64 510.666C347.64 510.666 346.169 503.452 344.554 494.665"
        stroke="#1B3C87"
        strokeWidth="0.895"
        strokeLinecap="round"
        strokeLinejoin="round"
      />
      <path
        d="M361.973 450.163C370.546 445.243 378.752 440.763 380.166 440.147C383.207 438.825 404.8 431.97 405.33 433.276C412.576 451.207 407.716 461.612 396.061 467.344"
        stroke="#1B3C87"
        strokeWidth="0.895"
        strokeLinecap="round"
        strokeLinejoin="round"
      />
      <path
        d="M343.021 486.035C341.206 475.412 339.758 465.073 340.707 463.661C341.554 462.4 348.026 458.332 355.506 453.922"
        stroke="#1B3C87"
        strokeWidth="0.895"
        strokeLinecap="round"
        strokeLinejoin="round"
      />
      <path
        d="M368.68 390.704C370.048 389.721 371.458 388.915 372.467 388.792"
        stroke="#1B3C87"
        strokeWidth="0.895"
        strokeLinecap="round"
        strokeLinejoin="round"
      />
      <path
        d="M366.795 401.989C365.512 399.733 363.701 395.572 364.356 394.582C364.517 394.339 364.916 393.904 365.464 393.376"
        stroke="#1B3C87"
        strokeWidth="0.895"
        strokeLinecap="round"
        strokeLinejoin="round"
      />
      <path
        fillRule="evenodd"
        clipRule="evenodd"
        d="M369.274 405.106C368.416 404.141 364.864 396.569 365.634 395.407C366.404 394.245 373.18 388.6 377.234 389.261C376.146 392.503 370.131 406.072 369.274 405.106Z"
        fill="#46DBC9"
      />
      <path
        fillRule="evenodd"
        clipRule="evenodd"
        d="M381.119 385.353C401.811 377.818 409.116 430.04 407.88 435.208C402.588 440.486 381.667 444.149 379.061 442.545C368.505 431.105 360.214 392.965 381.119 385.353Z"
        fill="#46DBC9"
      />
      <path
        d="M366.756 413.477C365.787 403.893 367.226 394.358 372.817 388.566"
        stroke="#1B3C87"
        strokeWidth="0.895"
        strokeLinecap="round"
        strokeLinejoin="round"
      />
      <path
        d="M403.527 413.357C405.862 423.205 406.655 432.176 406.178 434.167C400.885 439.445 379.964 443.108 377.358 441.504C373.328 437.137 369.627 428.874 367.756 419.906"
        stroke="#1B3C87"
        strokeWidth="0.895"
        strokeLinecap="round"
        strokeLinejoin="round"
      />
      <path
        d="M372.814 388.565C374.581 386.733 376.763 385.275 379.416 384.31C390.25 380.365 397.415 392.802 401.604 406.291"
        stroke="#1B3C87"
        strokeWidth="0.895"
        strokeLinecap="round"
        strokeLinejoin="round"
      />
      <path
        d="M337.412 401.207C333.344 401.219 330.159 401.194 329.703 401.115C328.41 400.891 322.816 396.649 321.302 396.628"
        stroke="#1B3C87"
        strokeWidth="0.895"
        strokeLinecap="round"
        strokeLinejoin="round"
      />
      <path
        d="M364.606 397.139C362.362 398.23 358.846 399.957 357.314 400.892C356.101 400.985 351.583 401.077 346.54 401.138"
        stroke="#1B3C87"
        strokeWidth="0.895"
        strokeLinecap="round"
        strokeLinejoin="round"
      />
      <path
        d="M317.826 405.625C319.749 407.046 322.41 405.448 323.919 405.863C325.428 406.277 354.708 413.02 356.513 413.08C358.317 413.139 365.767 409.543 366.504 408.329"
        stroke="#1B3C87"
        strokeWidth="0.895"
        strokeLinecap="round"
        strokeLinejoin="round"
      />
      <path
        fillRule="evenodd"
        clipRule="evenodd"
        d="M377.143 409.789C376.035 412.089 373.588 418.456 372.879 420.768C370.805 421.949 351.604 431.213 346.116 434.944C344.688 435.1 340.226 433.495 339.115 433.602C338.005 433.708 337.777 434.431 337.777 434.431C335.263 434.567 334.284 439.73 337.48 440.753C340.677 441.775 342.759 442.681 345.001 441.393C347.243 440.106 379.742 431.965 382.163 430.315C385.43 428.09 387.288 423.276 389.174 419.305C391.152 415.142 390.248 417.339 390.248 415.791C390.248 414.243 378.252 407.489 377.143 409.789Z"
        fill="white"
      />
      <path
        d="M333.295 434.058C334.259 434.901 336.667 435.758 338.248 436.013"
        stroke="#1B3C87"
        strokeWidth="0.895"
        strokeLinecap="round"
        strokeLinejoin="round"
      />
      <path
        d="M334.517 436.763C335.617 437.732 338.875 438.774 340.195 438.51"
        stroke="#1B3C87"
        strokeWidth="0.895"
        strokeLinecap="round"
        strokeLinejoin="round"
      />
      <path
        d="M376.958 430.469C378.924 429.835 380.317 429.331 380.797 429.045C383.393 427.492 388.503 417.339 388.656 414.893"
        stroke="#1B3C87"
        strokeWidth="0.895"
        strokeLinecap="round"
        strokeLinejoin="round"
      />
      <path
        d="M335.647 439.419C337.026 440.241 340.548 441.178 341.928 440.931C343.308 440.683 344.592 439.464 346.685 438.987C347.879 438.714 357.947 436.027 366.868 433.48"
        stroke="#1B3C87"
        strokeWidth="0.895"
        strokeLinecap="round"
        strokeLinejoin="round"
      />
      <path
        d="M375.765 408.8C374.657 411.099 372.211 417.468 371.502 419.779C369.428 420.96 350.226 430.224 344.738 433.956C343.311 434.112 338.848 432.506 337.738 432.614C336.628 432.721 336.399 433.443 336.399 433.443"
        stroke="#1B3C87"
        strokeWidth="0.895"
        strokeLinecap="round"
        strokeLinejoin="round"
      />
      <path
        fillRule="evenodd"
        clipRule="evenodd"
        d="M394.211 388.956C403.369 392.917 395.84 415.69 392.799 417.8C388.918 418.62 375.801 411.584 373.763 409.32C373.34 407.304 383.001 384.11 394.211 388.956Z"
        fill="#46DBC9"
      />
      <path
        d="M381.364 413.222C377.454 411.312 373.824 409.073 372.827 407.968"
        stroke="#1B3C87"
        strokeWidth="0.895"
        strokeLinecap="round"
        strokeLinejoin="round"
      />
      <path
        d="M377.309 397.35C381.114 391.068 386.949 384.868 393.275 387.605C402.433 391.565 394.904 414.338 391.863 416.448C390.78 416.677 388.978 416.294 386.898 415.574"
        stroke="#1B3C87"
        strokeWidth="0.895"
        strokeLinecap="round"
        strokeLinejoin="round"
      />
      <path
        fillRule="evenodd"
        clipRule="evenodd"
        d="M362.311 514.384L361.998 521.08L363.354 528.755L339.034 532.002L350.468 521.743L349.568 515.439"
        fill="white"
      />
      <path
        d="M349.182 520.511L348.281 514.207"
        stroke="#1B3C87"
        strokeWidth="0.895"
        strokeLinecap="round"
        strokeLinejoin="round"
      />
      <path
        d="M361.027 513.149L360.713 519.846L362.064 527.521L337.747 530.771L344.007 525.154"
        stroke="#1B3C87"
        strokeWidth="0.895"
        strokeLinecap="round"
        strokeLinejoin="round"
      />
      <path
        fillRule="evenodd"
        clipRule="evenodd"
        d="M320.464 488.545L316.001 490.565L310.026 497.036L295.432 477.173L309.862 482.355L314.79 478.876"
        fill="white"
      />
      <path
        d="M301.884 486.775L293.557 475.44L307.988 480.622L312.916 477.143"
        stroke="#1B3C87"
        strokeWidth="0.895"
        strokeLinecap="round"
        strokeLinejoin="round"
      />
      <path
        d="M318.59 486.811L314.126 488.831L308.151 495.303L305.166 491.24"
        stroke="#1B3C87"
        strokeWidth="0.895"
        strokeLinecap="round"
        strokeLinejoin="round"
      />
      <path
        d="M311.153 474.144L320.581 489.92"
        stroke="#1B3C87"
        strokeWidth="0.895"
        strokeLinecap="round"
        strokeLinejoin="round"
      />
      <path
        fillRule="evenodd"
        clipRule="evenodd"
        d="M283.348 388.419L321.444 394.202C321.544 394.217 321.641 394.251 321.729 394.304C321.816 394.356 321.892 394.426 321.953 394.508C322.013 394.59 322.057 394.683 322.081 394.782C322.106 394.881 322.111 394.983 322.095 395.084L320.173 407.748C320.143 407.951 320.032 408.134 319.866 408.257C319.701 408.379 319.493 408.43 319.29 408.4L281.195 402.618C280.991 402.587 280.808 402.477 280.686 402.311C280.564 402.145 280.513 401.938 280.543 401.734L282.466 389.071C282.481 388.97 282.516 388.873 282.568 388.786C282.621 388.699 282.69 388.623 282.772 388.562C282.854 388.502 282.947 388.458 283.046 388.433C283.145 388.409 283.247 388.404 283.348 388.419Z"
        fill="#B2C3FB"
      />
      <path
        fillRule="evenodd"
        clipRule="evenodd"
        d="M326.107 401.683C325.156 401.47 323.013 401.471 321.923 401.255C319.915 400.856 318.153 399.799 316.85 399.691C315.547 399.583 315.025 400.383 314.965 400.81C314.72 402.527 319.701 404.134 321.356 404.334"
        fill="white"
      />
      <path
        d="M326.107 401.683C325.156 401.47 323.013 401.471 321.923 401.255C319.915 400.856 318.153 399.799 316.85 399.691C315.547 399.583 315.025 400.383 314.965 400.81C314.72 402.527 319.701 404.134 321.356 404.334"
        stroke="#1B3C87"
        strokeWidth="0.895"
        strokeLinecap="round"
        strokeLinejoin="round"
      />
      <path
        fillRule="evenodd"
        clipRule="evenodd"
        d="M167.676 430.131C167.676 423.197 173.298 417.575 180.232 417.575C187.167 417.575 192.789 423.197 192.789 430.131C192.789 437.065 187.167 442.688 180.232 442.688C173.298 442.688 167.676 437.066 167.676 430.131Z"
        fill="white"
      />
      <path
        d="M203.374 424.193H309.966"
        stroke="#D7E0FF"
        strokeWidth="1.411"
        strokeLinecap="round"
        strokeLinejoin="round"
      />
      <path
        d="M203.374 436.073H255.168"
        stroke="#D7E0FF"
        strokeWidth="1.411"
        strokeLinecap="round"
        strokeLinejoin="round"
      />
      <path
        fillRule="evenodd"
        clipRule="evenodd"
        d="M167.676 469.183C167.676 462.249 173.298 456.627 180.232 456.627C187.167 456.627 192.789 462.249 192.789 469.183C192.789 476.117 187.167 481.74 180.232 481.74C173.298 481.74 167.676 476.118 167.676 469.183Z"
        fill="white"
      />
      <path
        d="M203.374 463.244H309.966"
        stroke="#D7E0FF"
        strokeWidth="1.411"
        strokeLinecap="round"
        strokeLinejoin="round"
      />
      <path
        d="M203.374 475.123H255.168"
        stroke="#D7E0FF"
        strokeWidth="1.411"
        strokeLinecap="round"
        strokeLinejoin="round"
      />
      <path
        fillRule="evenodd"
        clipRule="evenodd"
        d="M167.676 508.234C167.676 501.3 173.298 495.678 180.232 495.678C187.167 495.678 192.789 501.3 192.789 508.234C192.789 515.168 187.167 520.793 180.232 520.793C173.298 520.793 167.676 515.17 167.676 508.234Z"
        fill="white"
      />
      <path
        d="M203.374 502.296H309.966"
        stroke="#D7E0FF"
        strokeWidth="1.411"
        strokeLinecap="round"
        strokeLinejoin="round"
      />
      <path
        d="M203.374 514.174H255.168"
        stroke="#D7E0FF"
        strokeWidth="1.411"
        strokeLinecap="round"
        strokeLinejoin="round"
      />
      <path
        fillRule="evenodd"
        clipRule="evenodd"
        d="M167.676 547.287C167.676 540.352 173.298 534.731 180.232 534.731C187.167 534.731 192.789 540.352 192.789 547.287C192.789 554.222 187.167 559.843 180.232 559.843C173.298 559.843 167.676 554.221 167.676 547.287Z"
        fill="white"
      />
      <path
        d="M203.374 541.347H309.966"
        stroke="#D7E0FF"
        strokeWidth="1.411"
        strokeLinecap="round"
        strokeLinejoin="round"
      />
      <path
        d="M203.374 553.226H255.168"
        stroke="#D7E0FF"
        strokeWidth="1.411"
        strokeLinecap="round"
        strokeLinejoin="round"
      />
      <path
        fillRule="evenodd"
        clipRule="evenodd"
        d="M323.044 423.814C323.045 422.31 323.491 420.839 324.327 419.588C325.163 418.337 326.351 417.362 327.741 416.786C329.132 416.21 330.661 416.06 332.137 416.353C333.613 416.647 334.968 417.372 336.032 418.436C337.096 419.5 337.821 420.855 338.114 422.331C338.408 423.807 338.257 425.336 337.681 426.726C337.105 428.117 336.13 429.305 334.879 430.141C333.628 430.977 332.157 431.423 330.652 431.423C329.653 431.423 328.664 431.226 327.741 430.844C326.818 430.461 325.979 429.901 325.273 429.194C324.566 428.488 324.006 427.649 323.623 426.726C323.241 425.803 323.044 424.813 323.044 423.814Z"
        fill="white"
      />
      <path
        d="M323.312 418.396C324.271 417.026 325.655 416.011 327.25 415.506C328.844 415.002 330.56 415.037 332.133 415.607C333.705 416.176 335.046 417.248 335.949 418.656C336.851 420.064 337.264 421.731 337.123 423.397C336.983 425.064 336.298 426.637 335.173 427.875C334.049 429.113 332.547 429.946 330.902 430.244C329.256 430.543 327.558 430.291 326.07 429.528C324.582 428.764 323.387 427.532 322.67 426.021"
        stroke="#1B3C87"
        strokeWidth="0.895"
        strokeLinecap="round"
        strokeLinejoin="round"
      />
      <path
        fillRule="evenodd"
        clipRule="evenodd"
        d="M377.812 380.534C378.659 382.068 379.767 385.249 380.108 387.779C381.296 388.04 386.413 386.92 387.572 385.878C387.113 383.711 385.545 375.965 385.721 374.721C385.897 373.476 377.154 379.344 377.812 380.534Z"
        fill="white"
      />
      <path
        d="M382.913 386.37C384.378 385.999 385.781 385.496 386.324 385.008C385.864 382.843 384.296 375.096 384.472 373.851C384.648 372.605 375.905 378.478 376.563 379.666C377.41 381.2 378.518 384.38 378.859 386.909"
        stroke="#1B3C87"
        strokeWidth="0.895"
        strokeLinecap="round"
        strokeLinejoin="round"
      />
      <path
        fillRule="evenodd"
        clipRule="evenodd"
        d="M366.493 368.595C366.493 361.156 370.971 355.125 376.495 355.125C382.02 355.125 386.498 361.156 386.498 368.595C386.498 376.035 382.02 382.066 376.495 382.066C370.971 382.066 366.493 376.035 366.493 368.595Z"
        fill="white"
      />
      <path
        d="M371.149 367.539C371.005 368.74 370.284 370.471 369.443 371.118"
        stroke="#1B3C87"
        strokeWidth="0.895"
        strokeLinecap="round"
        strokeLinejoin="round"
      />
      <path
        fillRule="evenodd"
        clipRule="evenodd"
        d="M373.689 366.66C373.689 365.813 374.072 365.132 374.544 365.132C375.017 365.132 375.399 365.816 375.399 366.66C375.399 367.504 375.017 368.188 374.544 368.188C374.072 368.188 373.689 367.504 373.689 366.66Z"
        fill="#1B3C87"
      />
      <path
        d="M374.247 374.66C374.247 374.043 374.726 373.542 375.315 373.542C375.905 373.542 376.384 374.043 376.384 374.66C376.384 375.277 375.906 375.776 375.315 375.776C374.725 375.776 374.247 375.276 374.247 374.66Z"
        stroke="#1B3C87"
        strokeWidth="0.895"
        strokeLinecap="round"
        strokeLinejoin="round"
      />
      <path
        d="M365.739 369.921C365.636 369.134 365.585 368.342 365.585 367.548C365.585 360.107 370.063 354.077 375.587 354.077C381.111 354.077 385.59 360.107 385.59 367.548C385.59 374.989 381.112 381.019 375.587 381.019C371.798 381.019 368.5 378.181 366.803 373.996"
        stroke="#1B3C87"
        strokeWidth="0.895"
        strokeLinecap="round"
        strokeLinejoin="round"
      />
      <path
        fillRule="evenodd"
        clipRule="evenodd"
        d="M386.078 370.86C386.749 369.854 389.126 355.818 384.119 353.672C383.12 353.242 382.915 354.38 382.36 355.569C381.547 351.95 376.718 347.465 375.066 347.63C373.414 347.796 371.891 351.679 371.917 352.79C370.866 351.253 367.762 348.961 366.577 349.106C363.419 349.493 365.227 356.722 365.75 358.022C364.464 357.879 362.051 359.091 361.906 360.938C361.668 363.917 364.542 366.027 365.939 366.198C367.337 366.37 369.927 363.001 372.293 362.313C373.747 363.392 374.069 363.753 374.743 363.659C375.418 363.565 377.559 362.507 378.189 362.87C378.818 363.233 380.326 368.221 381.133 368.475C381.94 368.728 385.407 371.867 386.078 370.86Z"
        fill="#EECB55"
      />
      <path
        d="M364.812 356.897C363.526 356.753 361.113 357.966 360.967 359.813C360.73 362.791 363.604 364.902 365.002 365.073C366.01 365.197 367.636 363.48 369.353 362.255"
        stroke="#1B3C87"
        strokeWidth="0.895"
        strokeLinecap="round"
        strokeLinejoin="round"
      />
      <path
        d="M384.775 353.925C384.355 353.302 383.831 352.824 383.181 352.546C382.182 352.117 381.978 353.255 381.422 354.443C380.609 350.825 375.78 346.34 374.128 346.504C372.476 346.667 370.953 350.552 370.978 351.664C369.927 350.128 366.823 347.835 365.637 347.98C363.792 348.207 363.642 350.77 363.943 353.122"
        stroke="#1B3C87"
        strokeWidth="0.895"
        strokeLinecap="round"
        strokeLinejoin="round"
      />
      <path
        d="M371.354 361.188C372.807 362.267 373.129 362.627 373.803 362.534C374.476 362.442 376.619 361.382 377.249 361.745C377.878 362.108 379.385 367.097 380.193 367.35C381.001 367.603 384.469 370.738 385.14 369.736C385.531 369.149 386.501 364.137 386.252 359.634"
        stroke="#1B3C87"
        strokeWidth="0.895"
        strokeLinecap="round"
        strokeLinejoin="round"
      />
      <path
        fillRule="evenodd"
        clipRule="evenodd"
        d="M380.457 370.919C380.457 370.337 380.63 369.767 380.954 369.283C381.277 368.799 381.737 368.421 382.275 368.199C382.814 367.976 383.406 367.918 383.977 368.031C384.548 368.145 385.073 368.426 385.485 368.837C385.896 369.249 386.177 369.774 386.29 370.345C386.404 370.917 386.346 371.509 386.123 372.047C385.9 372.585 385.522 373.045 385.038 373.368C384.554 373.692 383.984 373.865 383.402 373.865C383.015 373.865 382.632 373.788 382.275 373.64C381.918 373.492 381.593 373.275 381.319 373.002C381.046 372.728 380.829 372.404 380.681 372.046C380.533 371.689 380.457 371.306 380.457 370.919Z"
        fill="white"
      />
      <path
        d="M380.457 368.408C380.852 368.064 381.332 367.831 381.847 367.734C382.362 367.637 382.894 367.68 383.387 367.857C383.88 368.034 384.317 368.34 384.653 368.743C384.989 369.146 385.211 369.631 385.296 370.148C385.382 370.665 385.327 371.196 385.139 371.685C384.951 372.174 384.636 372.604 384.226 372.931C383.816 373.257 383.326 373.469 382.807 373.543C382.288 373.617 381.759 373.551 381.274 373.352"
        stroke="#1B3C87"
        strokeWidth="0.895"
        strokeLinecap="round"
        strokeLinejoin="round"
      />
      <path
        fillRule="evenodd"
        clipRule="evenodd"
        d="M147.377 300H446.623C447.052 300 447.399 300.023 447.399 300.052V319.993C447.399 320.022 447.052 320.046 446.623 320.046H147.377C146.948 320.046 146.601 320.022 146.601 319.993V300.052C146.601 300.023 146.948 300 147.377 300Z"
        fill="#D7E0FF"
      />
      <path
        fillRule="evenodd"
        clipRule="evenodd"
        d="M156.364 310.021C156.364 307.089 158.705 304.712 161.592 304.712C164.479 304.712 166.82 307.089 166.82 310.021C166.82 312.954 164.479 315.331 161.59 315.331C158.7 315.331 156.364 312.954 156.364 310.021Z"
        fill="#FB5E64"
      />
      <path
        fillRule="evenodd"
        clipRule="evenodd"
        d="M176.663 310.021C176.663 307.089 179.003 304.712 181.891 304.712C184.779 304.712 187.119 307.089 187.119 310.021C187.119 312.954 184.779 315.331 181.891 315.331C179.003 315.331 176.663 312.954 176.663 310.021Z"
        fill="#FB5E64"
      />
      <path
        fillRule="evenodd"
        clipRule="evenodd"
        d="M196.963 310.021C196.963 307.089 199.303 304.712 202.191 304.712C205.078 304.712 207.419 307.089 207.419 310.021C207.419 312.954 205.078 315.331 202.19 315.331C199.302 315.331 196.963 312.954 196.963 310.021Z"
        fill="#FB5E64"
      />
    </g>
    <defs>
      <clipPath id="clip0_438_1294">
        <rect
          width="300.798"
          height="300"
          fill="white"
          transform="translate(146.601 300)"
        />
      </clipPath>
    </defs>
  </svg>