<svg xmlns="http://www.w3.org/2000/svg" viewBox="0 0 260 54"><defs><style>.a{fill:none}.b{fill:#ef4438}.c{fill:#3374bb}.d{fill:#3475bb}</style></defs><title>prayerletterscom</title><path class="a" d="M115.75,31.73c1.82,0,4.05-2.3,4.83-6.48l0.88-4.32a6.5,6.5,0,0,0-1.62-.17c-3.65,0-6.45,4.09-6.45,7.83C113.39,30.31,114,31.73,115.75,31.73Z"/><path class="a" d="M154.17,22.37c0-1.08-.85-1.72-2.09-1.72-2.47,0-4.09,2.2-4.56,4.19C151.57,24.91,154.17,24.33,154.17,22.37Z"/><path class="a" d="M83.8,31.05a4,4,0,0,0,2.63.81c3,0,5.54-4.05,5.54-7.73,0-1.52-.68-3.21-2.6-3.21S85.22,23.19,84.51,27Z"/><path class="a" d="M229,22.37c0-1.08-.85-1.72-2.09-1.72-2.46,0-4.09,2.2-4.56,4.19C226.4,24.91,229,24.33,229,22.37Z"/><path class="a" d="M239.25,40.09c-1.51,0-2.39,2-2.39,3.5a1.62,1.62,0,0,0,1.54,1.85c1.42,0,2.36-2,2.36-3.53A1.59,1.59,0,0,0,239.25,40.09Z"/><path class="a" d="M190.48,22.37c0-1.08-.84-1.72-2.09-1.72-2.47,0-4.08,2.2-4.56,4.19C187.88,24.91,190.48,24.33,190.48,22.37Z"/><path class="b" d="M61.27,45.38a2.91,2.91,0,0,1-2.72,2.28H9a1.83,1.83,0,0,1-1.84-2.28L12.84,16,28,29.9A12.54,12.54,0,0,0,36.6,33a17.68,17.68,0,0,0,9.79-3.14L64,18l0.37-1.88H59.16l-14.92,10c-4.27,2.88-9.46,2.88-12.61,0L17.83,13.61H57.61l0.91-4.69h-49L2.45,45.38a5.58,5.58,0,0,0,5.62,7H57.63a8.89,8.89,0,0,0,8.32-7l2.37-12.21H63.64Z"/><polygon class="b" points="170.83 34.53 174.78 34.53 179.34 10.55 175.42 10.55 170.83 34.53"/><path class="b" d="M188.89,17.72c-5.67,0-9.32,5.4-9.32,10.36,0,4,2.2,6.79,6.75,6.79a13.21,13.21,0,0,0,5.81-1.28l-0.37-2.87a9.76,9.76,0,0,1-4.53,1.08,3.63,3.63,0,0,1-3.38-1.69,4.52,4.52,0,0,1-.44-2.33c6.34,0.13,10.77-1.21,10.77-5.44C194.2,19.61,192.14,17.72,188.89,17.72Zm-5.06,7.12c0.47-2,2.09-4.19,4.56-4.19,1.25,0,2.09.64,2.09,1.72C190.48,24.33,187.88,24.91,183.83,24.84Z"/><path class="b" d="M203.83,13.56l-4,1-0.67,3.54h-2.23l-0.57,3h2.23l-1.42,7.33a13.62,13.62,0,0,0-.37,3.07c0,1.89,1.21,3.38,3.91,3.38a8.91,8.91,0,0,0,2.57-.34l0.37-3.07a8.73,8.73,0,0,1-1.35.07,1.29,1.29,0,0,1-1.45-1.45,14.53,14.53,0,0,1,.27-2.33l1.32-6.65h3.68l0.61-3H203Z"/><path class="b" d="M215.08,13.56l-4,1-0.67,3.54h-2.23l-0.57,3h2.23l-1.42,7.33a13.58,13.58,0,0,0-.37,3.07c0,1.89,1.21,3.38,3.92,3.38a8.89,8.89,0,0,0,2.57-.34l0.37-3.07a8.74,8.74,0,0,1-1.35.07,1.29,1.29,0,0,1-1.45-1.45,14.52,14.52,0,0,1,.27-2.33l1.32-6.65h3.68l0.61-3h-3.71Z"/><path class="b" d="M227.41,17.72c-5.67,0-9.32,5.4-9.32,10.36,0,4,2.2,6.79,6.76,6.79a13.2,13.2,0,0,0,5.81-1.28l-0.37-2.87a9.74,9.74,0,0,1-4.53,1.08,3.64,3.64,0,0,1-3.38-1.69,4.53,4.53,0,0,1-.44-2.33c6.35,0.13,10.77-1.21,10.77-5.44C232.71,19.61,230.65,17.72,227.41,17.72Zm-5.06,7.12c0.47-2,2.09-4.19,4.56-4.19,1.25,0,2.09.64,2.09,1.72C229,24.33,226.4,24.91,222.34,24.84Z"/><path class="b" d="M245.85,17.78a7.65,7.65,0,0,0-.84-0.06c-2.26,0-4.05,1.62-5.17,3.85h-0.1c0.17-1.21.27-2.36,0.37-3.48H236.7c-0.2,1.48-.41,4-0.84,6.32l-1.92,10.13h3.92l1.25-6.62c0.64-3.51,2.43-6.35,5.23-6.35a4.55,4.55,0,0,1,.74.07Z"/><path class="b" d="M253.59,20.65a6.56,6.56,0,0,1,3.07.74l1-2.84a8.18,8.18,0,0,0-3.88-.84c-3.88,0-6.65,2.23-6.65,5.4,0,1.89,1.35,3.31,3.24,4.29,1.62,0.84,2.16,1.49,2.16,2.53s-0.95,2-2.53,2a9,9,0,0,1-4-1.12l-1,2.84a8.52,8.52,0,0,0,4.59,1.18c4,0,7-2,7-5.61,0-2.09-1.62-3.44-3.41-4.42-1.38-.71-2.13-1.35-2.13-2.26C251.09,21.46,252.11,20.65,253.59,20.65Z"/><polygon class="c" points="80.31 8.92 73.04 8.92 74.45 1.65 69.76 1.65 68.35 8.92 61.09 8.92 60.18 13.61 62.93 13.61 67.44 13.61 66.97 16.04 64.13 30.63 68.82 30.63 72.13 13.61 79.39 13.61 80.31 8.92"/><path class="c" d="M81.84,41.22l1.32-7h0.07a6.63,6.63,0,0,0,3.28.71c5.6,0,9.59-5.33,9.59-11.08,0-3.21-1.65-6.11-5.2-6.11a6.93,6.93,0,0,0-5.57,3.07H85.25l0.37-2.7H82.08c-0.21,1.69-.57,4.15-0.95,6.11l-3.21,17h3.92ZM84.51,27c0.71-3.85,2.87-6.11,4.86-6.11S92,22.61,92,24.13c0,3.68-2.5,7.73-5.54,7.73a4,4,0,0,1-2.63-.81Z"/><path class="c" d="M102.89,27.91c0.64-3.51,2.43-6.35,5.23-6.35a4.55,4.55,0,0,1,.74.07l0.78-3.85a7.64,7.64,0,0,0-.84-0.06c-2.26,0-4.05,1.62-5.17,3.85h-0.1c0.17-1.21.27-2.36,0.37-3.48h-3.41c-0.2,1.48-.41,4-0.84,6.32L97.72,34.53h3.91Z"/><path class="d" d="M114.17,34.9c2.09,0,4.26-1,5.87-4.09h0.1c-0.13,1.42-.27,2.73-0.3,3.71h3.65a38.21,38.21,0,0,1,.68-7.49l1.69-8.58a17.53,17.53,0,0,0-5-.74c-7.66,0-11.58,6-11.58,11.58C109.31,32.6,111.23,34.9,114.17,34.9Zm5.67-14.15a6.5,6.5,0,0,1,1.62.17l-0.88,4.32c-0.78,4.18-3,6.48-4.83,6.48s-2.36-1.42-2.36-3.14C113.39,24.84,116.19,20.75,119.84,20.75Z"/><path class="c" d="M131.33,34a10.52,10.52,0,0,1-2.9,3.27,10.29,10.29,0,0,1-2.9,1.42l0.91,3.38a10.81,10.81,0,0,0,5.06-2.84c2.19-2.12,4-5,6-9l6-12.12h-4.16l-3.54,8.1c-0.78,1.79-1.18,2.9-1.59,3.92h-0.07C134,29,133.83,27.78,133.53,26l-1.28-7.93h-4.12l3.27,15.16A1,1,0,0,1,131.33,34Z"/><path class="c" d="M150,34.87a13.21,13.21,0,0,0,5.81-1.28l-0.37-2.87a9.75,9.75,0,0,1-4.53,1.08,3.64,3.64,0,0,1-3.38-1.69,4.55,4.55,0,0,1-.44-2.33c6.35,0.13,10.77-1.21,10.77-5.44,0-2.73-2.06-4.62-5.3-4.62-5.67,0-9.32,5.4-9.32,10.36C143.26,32.1,145.45,34.87,150,34.87Zm2.06-14.22c1.25,0,2.09.64,2.09,1.72,0,2-2.6,2.53-6.65,2.46C148,22.85,149.61,20.65,152.07,20.65Z"/><path class="c" d="M164.27,27.91c0.64-3.51,2.43-6.35,5.23-6.35a4.57,4.57,0,0,1,.74.07L171,17.78a7.64,7.64,0,0,0-.84-0.06c-2.26,0-4.05,1.62-5.16,3.85h-0.1c0.17-1.21.27-2.36,0.37-3.48h-3.41c-0.2,1.48-.41,4-0.84,6.32l-1.92,10.13H163Z"/><path class="c" d="M225.32,44.32a1.35,1.35,0,0,0-1.33,1.4,1.11,1.11,0,0,0,1.14,1.17,1.32,1.32,0,0,0,1.35-1.37A1.12,1.12,0,0,0,225.32,44.32Z"/><path class="c" d="M228.06,43.74a3,3,0,0,0,3.2,3.15,5.37,5.37,0,0,0,2.28-.44L233.47,45a4,4,0,0,1-1.69.38A1.66,1.66,0,0,1,230,43.51a3.18,3.18,0,0,1,3-3.33,2.83,2.83,0,0,1,1.19.24l0.49-1.48a4.38,4.38,0,0,0-1.61-.31A5,5,0,0,0,228.06,43.74Z"/><path class="c" d="M239.48,38.63a4.74,4.74,0,0,0-4.57,5,3.08,3.08,0,0,0,3.24,3.27,4.74,4.74,0,0,0,4.59-5A3.1,3.1,0,0,0,239.48,38.63Zm-1.07,6.81a1.62,1.62,0,0,1-1.54-1.85c0-1.48.88-3.5,2.39-3.5a1.59,1.59,0,0,1,1.51,1.82C240.77,43.49,239.82,45.44,238.41,45.44Z"/><path class="c" d="M253.87,38.63a3.31,3.31,0,0,0-2.8,1.63,1.71,1.71,0,0,0-1.87-1.63,3.34,3.34,0,0,0-2.75,1.56h0l0.16-1.38H245c-0.08.68-.21,1.51-0.39,2.45l-1,5.46h1.84L246.07,43c0.29-1.61,1.3-2.8,2.18-2.8a0.93,0.93,0,0,1,.94,1.14,4.69,4.69,0,0,1-.1.93l-0.84,4.49h1.82l0.72-3.79c0.31-1.67,1.27-2.76,2.13-2.76a0.94,0.94,0,0,1,1,1.12,7.41,7.41,0,0,1-.11,1L253,46.73h1.84l0.88-4.63a11.07,11.07,0,0,0,.13-1.35A1.88,1.88,0,0,0,253.87,38.63Z"/><polygon class="c" points="76.9 46.89 219.52 46.89 220 44.33 77.38 44.33 76.9 46.89"/></svg>