<svg width="152" height="95" viewBox="0 0 152 95" fill="none" xmlns="http://www.w3.org/2000/svg">
<path d="M32.6125 84.7457C28.7914 89.1125 24.7254 91.1515 19.8192 91.1515C11.0834 91.1515 3.97312 83.7389 3.97312 74.6272V74.4785C3.97312 65.2945 10.9018 58.0986 19.7432 58.0986C24.5776 58.0986 28.6056 60.0017 32.4141 64.0924L33.2247 64.9589L36.0536 62.304L35.2345 61.4332C31.9032 57.882 27.4656 54.25 19.8192 54.25C14.4358 54.25 9.4198 56.3867 5.69157 60.2693C2.02245 64.0881 0 69.1601 0 74.5465V74.6951C0 85.8926 8.85824 95.0001 19.7432 95.0001C25.9625 95.0001 31.1136 92.4938 35.4921 87.3326L36.2268 86.4661L33.4147 83.8239L32.6125 84.7457Z" fill="#383F43"/>
<path d="M47.2851 62.1126V55.1205H43.3838V94.1205H47.2851V73.9599C47.2851 67.3375 52.3982 58.094 60.7287 58.094H62.2783V54.254L60.9525 54.2412C54.7458 54.2455 50.0676 57.7117 47.2851 62.1126Z" fill="#383F43"/>
<path d="M95.9886 55.125V76.8955C95.9886 85.9562 91.3526 91.1514 83.2754 91.1514C75.1941 91.1514 70.5581 85.9562 70.5581 76.8955V55.125H66.6567V77.0399C66.6567 88.1184 72.969 95 83.1277 95H83.419C93.5777 95 99.8857 88.1184 99.8857 77.0399V55.125H95.9886Z" fill="#383F43"/>
<path d="M125.864 0.0467268V26.2053H152V30.0114H122.081V0L125.864 0.0467268Z" fill="#00C7E2"/>
<path d="M113.62 26.2053V7.79492L117.407 7.80767V30.0114H95.0254V26.2053H113.62Z" fill="#007BC6"/>
<path d="M144.282 34.6968V38.5071H125.864V75.4128H122.081V34.6968H144.282Z" fill="#FF9700"/>
<path d="M117.408 34.6968V54.2838V64.946H113.62V38.5071H87.4214V34.6968H117.408Z" fill="#FFCF07"/>
</svg>
