<?xml version="1.0" encoding="UTF-8"?><svg id="a" xmlns="http://www.w3.org/2000/svg" viewBox="0 0 1382 1000"><defs><style>.b{fill:#ffd000;}.c{fill:#007890;}.d{fill:#00c0d8;}.e{fill:#f08020;}</style></defs><path d="M1064.32,692.4c-1.56,0-3.02-.29-4.38-.87-1.36-.58-2.56-1.39-3.59-2.42-1.03-1.03-1.84-2.23-2.42-3.59-.58-1.36-.87-2.82-.87-4.38s.29-3.02.87-4.38c.58-1.36,1.39-2.56,2.42-3.59,1.03-1.03,2.23-1.84,3.59-2.42,1.36-.58,2.82-.87,4.38-.87s3.02.29,4.38.87c1.36.58,2.56,1.39,3.59,2.42,1.03,1.03,1.84,2.23,2.42,3.59.58,1.36.87,2.82.87,4.38s-.29,3.02-.87,4.38c-.58,1.36-1.39,2.56-2.42,3.59s-2.23,1.84-3.59,2.42c-1.36.58-2.82.87-4.38.87ZM1064.32,690.3c1.69,0,3.23-.41,4.62-1.24s2.49-1.93,3.32-3.32c.83-1.39,1.24-2.93,1.24-4.62s-.41-3.23-1.24-4.62c-.83-1.39-1.93-2.49-3.32-3.32-1.39-.83-2.92-1.24-4.62-1.24s-3.23.41-4.62,1.24c-1.39.83-2.49,1.93-3.32,3.32-.83,1.39-1.24,2.93-1.24,4.62s.41,3.23,1.24,4.62c.83,1.39,1.93,2.49,3.32,3.32s2.93,1.24,4.62,1.24ZM1060.5,686.2v-10.4h4.99c.53,0,1.04.12,1.53.37.49.25.9.62,1.23,1.1s.49,1.08.49,1.78-.17,1.31-.5,1.83c-.33.51-.76.9-1.27,1.18-.51.27-1.04.41-1.59.41h-3.86v-1.42h3.38c.48,0,.91-.17,1.29-.51.38-.34.57-.83.57-1.47s-.19-1.13-.57-1.41c-.38-.28-.8-.42-1.25-.42h-2.62v8.98h-1.82ZM1066.56,681.36l2.59,4.83h-2.03l-2.52-4.83h1.96Z"/><polygon class="b" points="955.07 426.93 955.07 624.93 930.32 624.93 930.32 451.68 757.07 451.68 757.07 426.93 955.07 426.93"/><polygon class="c" points="930.32 371.24 806.57 371.24 806.57 395.99 955.07 395.99 955.07 247.5 930.32 247.5 930.32 371.24"/><polygon class="e" points="986.01 426.93 986.01 692.99 1010.76 692.99 1010.76 451.68 1134.5 451.68 1134.5 426.93 986.01 426.93"/><polygon class="d" points="1010.76 371.24 1010.76 198 986.01 198 986.01 395.99 1184 395.99 1184 371.24 1010.76 371.24"/><path d="M409.8,731.53l17.86,16.67-4.65,5.49c-27.79,32.52-60.46,48.31-99.9,48.31-69.02,0-125.17-57.4-125.17-127.97v-.92c0-33.94,12.81-65.9,36.08-89.99,23.61-24.49,55.44-37.96,89.57-37.96,48.52,0,76.68,22.87,97.78,45.25l5.18,5.52-17.96,16.75-5.1-5.47c-24.14-25.78-49.71-37.8-80.38-37.8-56.08,0-99.98,45.38-99.98,103.28v.9c0,57.42,45.06,104.15,100.45,104.15,31.09,0,56.9-12.81,81.12-40.36l5.1-5.84ZM497.76,594.74v-44.06h-24.75v245.78h24.75v-127.05c0-41.73,32.41-99.98,85.24-99.98h9.83v-24.22l-8.43-.08c-39.36,0-68.97,21.87-86.64,49.6M806.57,550.68v137.19c0,57.08-29.4,89.86-80.64,89.86s-80.61-32.78-80.61-89.86v-137.19h-24.72v138.12c0,69.81,39.99,113.21,104.41,113.21h1.85c64.42,0,104.47-43.4,104.47-113.21v-138.12h-24.75Z"/></svg>