<svg width="83" height="32" viewBox="0 0 83 32" version="1.1" xmlns="http://www.w3.org/2000/svg" xmlns:xlink="http://www.w3.org/1999/xlink"><title>Page 1</title><desc>Created with Sketch.</desc><defs><polygon id="path-1" points="0 0.268030934 0 10.6351493 24.0796018 10.6351493 24.0796018 0.268030934 0 0.268030934"/><polygon id="path-3" points="0.241194574 24.8773985 14.5400371 24.8773985 14.5400371 0.267232401 0.241194574 0.267232401"/></defs><g id="Page-1" stroke="none" stroke-width="1" fill="none" fill-rule="evenodd"><g id="Tools" transform="translate(-164.000000, -15.000000)"><g id="Page-1" transform="translate(164.000000, 15.000000)"><g id="Group-3" transform="translate(0.000000, 10.623878)"><mask id="mask-2" fill="#fff"><use xlink:href="#path-1"/></mask><path d="M23.9445548,3.31842997 C24.0339695,3.06597045 24.0796018,2.81351092 24.0796018,2.5687296 C24.0796018,2.02265535 23.8529818,1.25974846 22.7747635,0.722273803 C22.1698266,0.420980866 21.4874997,0.268030934 20.7472075,0.268030934 L4.73950469,0.268030934 L-9.24979948e-05,10.6351493 L4.41452841,10.6351493 L7.67569934,3.35743527 L11.3938104,3.35743527 L8.11475648,10.6351493 L12.5361606,10.6351493 L15.8879795,3.27635338 L18.7847084,3.27635338 C19.4041366,3.27635338 19.4041366,3.45325933 19.4041366,3.58225325 C19.4041366,3.6759274 19.3813204,3.77083007 19.3322965,3.8761751 L16.2477967,10.6351493 L20.5927358,10.6351493 L23.9263635,3.36265646 L23.9445548,3.31842997 Z" id="Fill-1" fill="#383F43" mask="url(#mask-2)"/></g><g id="Group-6" transform="translate(54.573816, 6.938337)"><mask id="mask-4" fill="#fff"><use xlink:href="#path-3"/></mask><path d="M11.2360088,11.3241611 C11.79223,11.1939387 12.2152542,11.1168494 12.2152542,11.1168494 C11.6655078,10.637422 11.317407,9.93501944 11.317407,9.15061357 C11.317407,7.7071102 12.4915149,6.53480118 13.9415751,6.53480118 C14.1475373,6.53480118 14.347333,6.56121422 14.5400371,6.60574784 C14.5400371,6.60574784 14.051031,5.86556845 13.9890574,5.78141527 C13.4494858,5.05198538 12.4215247,3.4395614 12.8587319,2.36461208 C13.1649003,1.61061192 13.8860763,0.291495542 13.8860763,0.291495542 L9.81863119,0.267232401 C9.81863119,0.267232401 9.06847246,2.08819655 8.94020857,2.40300313 C8.43917777,3.63151664 8.74750442,4.89842119 10.0964335,6.97153773 C10.2684798,7.23597527 11.2104177,8.57720489 11.2104177,8.57720489 C11.2104177,8.57720489 9.44093105,8.96602941 8.22704904,9.2559586 C7.01347537,9.54558066 5.4135684,10.40769 4.50801305,12.5382396 C4.12044645,13.4497966 1.71334034,18.6694433 1.71334034,18.6694433 L0.513949685,18.6694433 C0.20839798,18.6694433 0.242313911,19.0134271 0.242313911,19.0134271 C0.242313911,19.0134271 0.702028939,23.9855284 0.763385941,24.5091823 C0.856500588,25.3037234 1.67233289,24.6000923 1.91930253,24.3706674 C2.51776455,23.8144579 6.96105984,19.7895405 7.22406247,19.5653368 C7.9418469,18.9563012 7.91502248,18.6651435 7.38408399,18.6694433 C7.02519178,18.6722075 6.27564971,18.6694433 6.27564971,18.6694433 L6.7014488,17.6058578 C6.7014488,17.6058578 8.34174655,14.2434163 8.72746319,13.3908279 C9.11348815,12.5382396 9.90372934,11.6362035 11.2360088,11.3241611" id="Fill-4" fill="#383F43" mask="url(#mask-4)"/></g><g id="Group-9" transform="translate(67.831862, 0.181513)" fill="#383F43"><path d="M3.35231228,13.6792215 C2.79639934,13.8094439 2.37306686,13.886226 2.37306686,13.886226 C2.92281327,14.3659605 3.27091405,15.0683631 3.27091405,15.8524619 C3.27091405,17.2959652 2.09680618,18.4685814 0.646745971,18.4685814 C0.440783772,18.4685814 0.241296433,18.4421683 0.0485922793,18.3976347 C0.0485922793,18.3976347 0.846541637,19.5211103 0.90789864,19.6058778 C1.67871525,20.6679277 2.16679633,21.5638212 1.72989748,22.6387705 C1.42342079,23.3924635 0.702244767,24.711887 0.702244767,24.711887 L4.7699982,24.735843 C4.7699982,24.735843 5.52385685,22.9164145 5.64842081,22.6003794 C6.04647051,21.5893128 6.03382912,20.2585256 5.18593084,19.0300121 C5.00648474,18.7701815 3.37821172,16.4258706 3.37821172,16.4258706 C3.37821172,16.4258706 5.14739001,16.037046 6.36158034,15.747424 C7.57484569,15.4578019 9.17506098,14.5956926 10.0806163,12.465143 C10.4678746,11.5532789 12.8749807,6.33393922 12.8749807,6.33393922 L14.0743714,6.33393922 C14.3799231,6.33393922 14.3460071,5.98964831 14.3460071,5.98964831 C14.3460071,5.98964831 13.8866004,1.01785415 13.8252434,0.494200271 C13.7318205,-0.300647968 12.9159882,0.402983143 12.6690185,0.632715169 C12.0708648,1.18892466 7.62726122,5.21353491 7.36425859,5.43773862 C6.64647416,6.04708132 6.67329858,6.33823902 7.20454539,6.33393922 C7.5634376,6.33086794 8.31267135,6.33393922 8.31267135,6.33393922 L7.88687226,7.39752479 C7.88687226,7.39752479 6.2465745,10.7596591 5.86085787,11.6125546 C5.47514124,12.465143 4.68490004,13.367179 3.35231228,13.6792215" id="Fill-7"/></g><path d="M70.1056168,16.0628141 C70.1056168,16.9608575 69.376116,17.6902874 68.4745689,17.6902874 C67.5705551,17.6902874 66.840746,16.9608575 66.840746,16.0628141 C66.840746,15.1644636 67.5705551,14.435648 68.4745689,14.435648 C69.376116,14.435648 70.1056168,15.1644636 70.1056168,16.0628141" id="Fill-10" fill="#383F43"/><path d="M40.7742564,11.3461208 C40.1693195,11.0445207 39.4811344,10.8918779 38.7297424,10.8918779 L27.5051109,10.8918779 L20.7025001,25.7479846 L25.0122899,25.7479846 L30.479538,13.8998932 L36.7259275,13.8998932 C37.3117482,13.8998932 37.3117482,14.0669711 37.3117482,14.1892081 C37.3117482,14.2942461 37.2876987,14.3949842 37.2389831,14.4997149 L35.8114307,17.497595 C35.7250992,17.6358028 35.4787462,17.954602 34.6434894,17.954602 L29.5372918,17.954602 L28.0042917,21.2589963 L35.228385,21.2589963 C36.948231,21.2589963 38.2946935,20.7549986 39.2289232,19.7592884 L39.2896636,19.6944843 L41.9085901,13.9868105 L41.9267814,13.9422769 C42.0158878,13.6898174 42.0618284,13.437665 42.0618284,13.1928837 C42.0618284,12.6477308 41.8386,11.8860525 40.7742564,11.3461208" id="Fill-12" fill="#383F43"/><path d="M58.1748248,7.1788801 L53.3054221,17.9544792 L46.8256293,17.9544792 C46.5666349,17.927759 46.437446,17.8810755 46.3782473,17.8515912 L47.7222432,14.9483066 C47.8609902,14.6463995 48.0925435,14.4031538 48.4304695,14.2056702 C48.7822702,13.9998942 49.1325292,13.9000775 49.5000546,13.9000775 L54.2337936,13.9000775 L55.6101637,10.8920622 L49.3011839,10.8920622 C48.48196,10.8920622 47.6010708,11.0861673 46.6831824,11.4691564 C45.5244908,11.9513479 44.6846091,12.6319444 44.1869699,13.4934395 L41.5412189,19.2533251 L41.5341274,19.348842 C41.4971282,19.8255053 41.6331002,20.2441212 41.9260106,20.5598492 C42.3632177,21.0309841 43.1201597,21.2591805 44.2406187,21.2591805 L56.2104757,21.2591805 L62.6307614,7.1788801 L58.1748248,7.1788801 Z" id="Fill-14" fill="#383F43"/></g></g></g></svg>
